<?xml version="1.0" encoding="UTF-8" standalone="no"?>
<svg
   xmlns:dc="http://purl.org/dc/elements/1.1/"
   xmlns:cc="http://creativecommons.org/ns#"
   xmlns:rdf="http://www.w3.org/1999/02/22-rdf-syntax-ns#"
   xmlns:svg="http://www.w3.org/2000/svg"
   xmlns="http://www.w3.org/2000/svg"
   width="26.60923mm"
   height="26.610262mm"
   viewBox="0 0 26.60923 26.610262"
   version="1.1"
   id="svg8">
  <defs
     id="defs2">
    <clipPath
       id="clipPath26"
       clipPathUnits="userSpaceOnUse">
      <path
         id="path24"
         d="M 0,841.89 H 1190.551 V 0 H 0 Z" />
    </clipPath>
  </defs>
  <metadata
     id="metadata5">
    <rdf:RDF>
      <cc:Work
         rdf:about="">
        <dc:format>image/svg+xml</dc:format>
        <dc:type
           rdf:resource="http://purl.org/dc/dcmitype/StillImage" />
        <dc:title></dc:title>
      </cc:Work>
    </rdf:RDF>
  </metadata>
  <g
     transform="translate(-87.659847,-125.0564)"
     id="layer1">
    <g
       transform="matrix(0.35277777,0,0,-0.35277777,-32.425165,292.12938)"
       clip-path="url(#clipPath26)"
       id="g22">
      <g
         transform="translate(436.7795,383.9073)"
         id="g28" />
      <g
         transform="translate(439.9192,370.9473)"
         id="g32" />
      <g
         transform="translate(454.6399,381.3477)"
         id="g36" />
      <g
         transform="translate(463.1399,380.127)"
         id="g40" />
      <g
         transform="translate(471.8196,383.9473)"
         id="g44" />
      <g
         transform="translate(485.3401,376.0674)"
         id="g48" />
      <g
         transform="translate(493.1389,371.8672)"
         id="g52" />
      <g
         transform="translate(500.4592,372.5674)"
         id="g56" />
      <g
         transform="translate(509.8391,372.5674)"
         id="g60" />
      <g
         transform="translate(524.3391,370.7471)"
         id="g64" />
      <g
         transform="translate(532.3196,383.9473)"
         id="g68" />
      <g
         transform="translate(548.9583,372.127)"
         id="g72" />
      <g
         transform="translate(558.6985,371.5469)"
         id="g76" />
      <g
         transform="translate(561.2385,372.5674)"
         id="g80" />
      <g
         transform="translate(572.5989,383.9473)"
         id="g84" />
      <g
         transform="translate(578.5774,370.9473)"
         id="g88" />
      <g
         transform="translate(586.8381,371.5469)"
         id="g92" />
      <g
         transform="translate(594.717,380.2871)"
         id="g96" />
      <g
         transform="translate(609.637,381.1075)"
         id="g100" />
      <g
         transform="translate(614.7776,383.9473)"
         id="g104" />
      <g
         transform="translate(621.3167,371.5469)"
         id="g108" />
      <g
         transform="translate(632.677,376.0674)"
         id="g112" />
      <g
         transform="translate(641.1565,381.4073)"
         id="g116" />
      <g
         transform="translate(455.1252,409.7569)"
         id="g120" />
      <g
         transform="translate(455.1252,409.7569)"
         id="g124" />
      <g
         transform="translate(511.6067,431.2412)"
         id="g128" />
      <g
         transform="translate(511.6067,431.2412)"
         id="g132" />
      <g
         transform="translate(559.1907,409.7569)"
         id="g136" />
      <g
         transform="translate(559.1907,409.7569)"
         id="g140" />
      <g
         transform="translate(589.0667,408.918)"
         id="g144" />
      <g
         transform="translate(589.0667,408.918)"
         id="g148" />
      <g
         transform="translate(636.9036,453.6494)"
         id="g152" />
      <g
         transform="translate(636.9036,453.6494)"
         id="g156" />
      <g
         transform="translate(683.2288,448.9492)"
         id="g160" />
      <g
         transform="translate(683.2288,448.9492)"
         id="g164" />
      <g
         transform="translate(734.1714,413.6172)"
         id="g168" />
      <g
         transform="translate(734.1714,413.6172)"
         id="g172" />
      <g
         transform="translate(773.1958,464.3076)"
         id="g176" />
      <g
         transform="translate(773.1958,464.3076)"
         id="g180" />
      <g
         transform="translate(814.4028,408.918)"
         id="g184" />
      <g
         transform="translate(814.4028,408.918)"
         id="g188" />
      <g
         transform="translate(385.0378,470.5074)"
         id="g192">
        <path
           id="path194"
           style="fill:#7ecb62;fill-opacity:1;fill-rule:nonzero;stroke:none"
           d="m 0,0 h -4.617 v -9.235 -13.851 -4.618 H 0 h 13.852 4.617 9.235 v 4.618 H 17.147 v 4.617 4.617 H 12.53 3.295 v -4.617 h 9.235 v -4.617 H 0 v 13.851" />
      </g>
      <g
         transform="translate(371.186,401.2481)"
         id="g196">
        <path
           id="path198"
           style="fill:#7ecb62;fill-opacity:1;fill-rule:nonzero;stroke:none;stroke-width:1.33333"
           transform="matrix(0.75000002,0,0,-0.75000002,-86.570249,505.46963)"
           d="m 78.488281,637.02148 v 6.15625 h 14.076172 v 6.15625 6.15625 h 6.15625 12.312497 v -6.15625 H 98.720703 v -6.15625 h 16.707027 v 18.47071 12.31054 h 6.1543 v -12.31054 -18.47071 -6.15625 h -6.1543 -18.470699 -6.15625 z" />
      </g>
      <g
         transform="translate(385.0378,410.4825)"
         id="g200">
        <path
           id="path202"
           style="fill:#7ecb62;fill-opacity:1;fill-rule:nonzero;stroke:none;stroke-width:1.33333"
           transform="matrix(0.75000002,0,0,-0.75000002,-100.42205,496.23523)"
           d="m 127.74023,637.02148 v 6.15625 18.46875 12.3125 h 6.15625 v -12.3125 -18.46875 h 16.70704 v 6.15821 h -12.31446 v 6.15429 h 12.31446 6.15429 v -6.15429 -6.15821 h 14.07617 v -6.15625 h -12.3125 -6.15625 -18.46875 z" />
      </g>
      <g
         transform="translate(371.186,461.2725)"
         id="g204">
        <path
           id="path206"
           style="fill:#7ecb62;fill-opacity:1;fill-rule:nonzero;stroke:none"
           d="m 0,0 v -13.852 h -12.53 v 4.618 h 9.234 v 4.617 h -9.234 -4.617 v -4.617 -4.618 h -10.557 v -4.617 h 9.235 4.617 H 0 4.617 V -13.852 0 9.235 H 0" />
      </g>
      <path
         id="path208"
         style="fill:#7ecb62;fill-opacity:1;fill-rule:nonzero;stroke:none"
         d="m 343.482,433.569 h 69.26 v 4.617 h -69.26 z" />
      <g
         transform="translate(378.1111,469.5367)"
         id="g210">
        <path
           id="path212"
           style="fill:#7ecb62;fill-opacity:1;fill-rule:nonzero;stroke:none;stroke-width:1.33333"
           transform="matrix(0.75000002,0,0,-0.75000002,-93.495349,437.18103)"
           d="m 124.66016,577.5 c -27.72667,0 -50.283207,22.55911 -50.283207,50.28711 0,27.72933 22.556537,50.28711 50.283207,50.28711 27.728,0 50.28711,-22.55778 50.28711,-50.28711 0,-27.728 -22.55911,-50.28711 -50.28711,-50.28711 z m 0,5.4082 c 24.74666,0 44.8789,20.13358 44.8789,44.87891 0,24.74667 -20.13224,44.87891 -44.8789,44.87891 -24.74667,0 -44.876957,-20.13224 -44.876957,-44.87891 0,-24.74533 20.130287,-44.87891 44.876957,-44.87891 z" />
      </g>
      <g
         transform="translate(17.0146,820.1817)"
         id="g214" />
      <g
         transform="translate(29.4297,824.1592)"
         id="g218" />
      <g
         transform="translate(31.4834,818.6085)"
         id="g222" />
      <g
         transform="translate(40.7524,823.627)"
         id="g226" />
      <g
         transform="translate(48.6431,818.1534)"
         id="g230" />
      <g
         transform="translate(56.9111,824.3546)"
         id="g234" />
      <g
         transform="translate(64.0869,823.627)"
         id="g238" />
      <g
         transform="translate(68.8452,818.6085)"
         id="g242" />
      <g
         transform="translate(76.1772,817.9454)"
         id="g246" />
      <g
         transform="translate(81,818.1534)"
         id="g250" />
      <g
         transform="translate(88.9302,823.627)"
         id="g254" />
      <g
         transform="translate(96.8862,817.4258)"
         id="g258" />
    </g>
  </g>
</svg>
