<svg id="eg4c8j973evt1" xmlns="http://www.w3.org/2000/svg" xmlns:xlink="http://www.w3.org/1999/xlink" viewBox="0 0 26.609230 26.610262" shape-rendering="geometricPrecision" text-rendering="geometricPrecision"><style><![CDATA[#eg4c8j973evt4_tr {animation: eg4c8j973evt4_tr__tr 1500ms linear infinite normal forwards}@keyframes eg4c8j973evt4_tr__tr { 0% {transform: translate(13.304630px,13.305145px) rotate(0deg);animation-timing-function: cubic-bezier(0.835000,0,0.175000,1)} 66.666667% {transform: translate(13.304630px,13.305145px) rotate(360deg)} 100% {transform: translate(13.304630px,13.305145px) rotate(360deg)} }]]></style><defs><clipPath id="eg4c8j973evt2"><path id="eg4c8j973evt3" d="M0,841.890000L1190.551000,841.890000L1190.551000,0L0,0Z" fill="rgb(0,0,0)" stroke="none" stroke-width="1"/></clipPath></defs><g id="eg4c8j973evt4_tr" transform="translate(13.304630,13.305145) rotate(0)"><g id="eg4c8j973evt4" transform="translate(-100.964474,-138.361542)"><g id="eg4c8j973evt5" transform="matrix(0.35277777910233 0 0 -0.35277777910233 -32.42516326904297 292.12939453125000)" clip-path="url(#eg4c8j973evt2)"><g id="eg4c8j973evt6" transform="matrix(1 0 0 1 385.03781127929688 470.50738525390625)"><path id="eg4c8j973evt7" d="M0,0L-4.617000,0L-4.617000,-9.235000L-4.617000,-23.086000L-4.617000,-27.704000L0,-27.704000L13.852000,-27.704000L18.469000,-27.704000L27.704000,-27.704000L27.704000,-23.086000L17.147000,-23.086000L17.147000,-18.469000L17.147000,-13.852000L12.530000,-13.852000L3.295000,-13.852000L3.295000,-18.469000L12.530000,-18.469000L12.530000,-23.086000L0,-23.086000L0,-9.235000" fill="#9bbf73" stroke="none" stroke-width="1"/></g><g id="eg4c8j973evt8" transform="matrix(1 0 0 1 371.18600463867188 401.24810791015625)"><path id="eg4c8j973evt9" d="M78.488281,637.021480L78.488281,643.177730L92.564453,643.177730L92.564453,649.333980L92.564453,655.490230L98.720703,655.490230L111.033200,655.490230L111.033200,649.333980L98.720703,649.333980L98.720703,643.177730L115.427730,643.177730L115.427730,661.648440L115.427730,673.958980L121.582030,673.958980L121.582030,661.648440L121.582030,643.177730L121.582030,637.021480L115.427730,637.021480L96.957031,637.021480L90.800781,637.021480Z" transform="matrix(0.75000000000000 0 0 -0.75000000000000 -86.57025146484375 505.46963500976563)" fill="#9bbf73" stroke="none" stroke-width="1.333330"/></g><g id="eg4c8j973evt10" transform="matrix(1 0 0 1 385.03781127929688 410.48251342773438)"><path id="eg4c8j973evt11" d="M127.740230,637.021480L127.740230,643.177730L127.740230,661.646480L127.740230,673.958980L133.896480,673.958980L133.896480,661.646480L133.896480,643.177730L150.603520,643.177730L150.603520,649.335940L138.289060,649.335940L138.289060,655.490230L150.603520,655.490230L156.757810,655.490230L156.757810,649.335940L156.757810,643.177730L170.833980,643.177730L170.833980,637.021480L158.521480,637.021480L152.365230,637.021480L133.896480,637.021480Z" transform="matrix(0.75000000000000 0 0 -0.75000000000000 -100.42205047607422 496.23522949218750)" fill="#9bbf73" stroke="none" stroke-width="1.333330"/></g><g id="eg4c8j973evt12" transform="matrix(1 0 0 1 371.18600463867188 461.27249145507813)"><path id="eg4c8j973evt13" d="M0,0L0,-13.852000L-12.530000,-13.852000L-12.530000,-9.234000L-3.296000,-9.234000L-3.296000,-4.617000L-12.530000,-4.617000L-17.147000,-4.617000L-17.147000,-9.234000L-17.147000,-13.852000L-27.704000,-13.852000L-27.704000,-18.469000L-18.469000,-18.469000L-13.852000,-18.469000L0,-18.469000L4.617000,-18.469000L4.617000,-13.852000L4.617000,0L4.617000,9.235000L0,9.235000" fill="#9bbf73" stroke="none" stroke-width="1"/></g><g id="eg4c8j973evt14" transform="matrix(1 0 0 1 378.11111450195313 469.53671264648438)"><path id="eg4c8j973evt15" d="M124.660160,577.500000C96.933490,577.500000,74.376953,600.059110,74.376953,627.787110C74.376953,655.516440,96.933490,678.074220,124.660160,678.074220C152.388160,678.074220,174.947270,655.516440,174.947270,627.787110C174.947270,600.059110,152.388160,577.500000,124.660160,577.500000ZM124.660160,582.908200C149.406820,582.908200,169.539060,603.041780,169.539060,627.787110C169.539060,652.533780,149.406820,672.666020,124.660160,672.666020C99.913490,672.666020,79.783203,652.533780,79.783203,627.787110C79.783203,603.041780,99.913490,582.908200,124.660160,582.908200Z" transform="matrix(0.75000000000000 0 0 -0.75000000000000 -93.49534606933594 437.18103027343750)" fill="#9bbf73" stroke="none" stroke-width="1.333330"/></g><path id="eg4c8j973evt16" d="M343.482000,433.569000L412.742000,433.569000L412.742000,438.186000L343.482000,438.186000Z" fill="#9bbf73" stroke="none" stroke-width="1"/></g></g></g></svg>